<?xml version="1.0" encoding="UTF-8" standalone="no"?>
<!-- Created with Inkscape (http://www.inkscape.org/) -->

<svg
   xmlns:dc="http://purl.org/dc/elements/1.1/"
   xmlns:cc="http://creativecommons.org/ns#"
   xmlns:rdf="http://www.w3.org/1999/02/22-rdf-syntax-ns#"
   xmlns:svg="http://www.w3.org/2000/svg"
   xmlns="http://www.w3.org/2000/svg"
   xmlns:sodipodi="http://sodipodi.sourceforge.net/DTD/sodipodi-0.dtd"
   xmlns:inkscape="http://www.inkscape.org/namespaces/inkscape"
   width="150mm"
   height="150mm"
   viewBox="0 0 531.49606 531.49606"
   id="svg2"
   version="1.1"
   inkscape:version="0.91 r13725"
   sodipodi:docname="fishing2.svg">
  <defs
     id="defs4" />
  <sodipodi:namedview
     id="base"
     pagecolor="#ffffff"
     bordercolor="#666666"
     borderopacity="1.0"
     inkscape:pageopacity="0.0"
     inkscape:pageshadow="2"
     inkscape:zoom="0.35"
     inkscape:cx="16.41918"
     inkscape:cy="798.09296"
     inkscape:document-units="px"
     inkscape:current-layer="layer1"
     showgrid="false"
     inkscape:window-width="1680"
     inkscape:window-height="987"
     inkscape:window-x="-8"
     inkscape:window-y="-8"
     inkscape:window-maximized="1" />
  <metadata
     id="metadata7">
    <rdf:RDF>
      <cc:Work
         rdf:about="">
        <dc:format>image/svg+xml</dc:format>
        <dc:type
           rdf:resource="http://purl.org/dc/dcmitype/StillImage" />
        <dc:title></dc:title>
      </cc:Work>
    </rdf:RDF>
  </metadata>
  <g
     inkscape:label="Layer 1"
     inkscape:groupmode="layer"
     id="layer1"
     transform="translate(0,-520.86614)">
    <path
       style="fill:#000000"
       id="path3336"
       d="m 77.331924,683.68396 c 1.57531,3.97812 3.65561,7.64386 5.783465,11.2714 2.137266,3.585 4.343351,7.09677 6.672261,10.53034 1.715601,2.8006 3.524955,5.54666 5.051413,8.48347 1.613783,3.37957 3.744952,6.39437 5.551567,9.64974 1.93497,3.13892 3.9483,6.21459 5.8761,9.35865 1.85266,2.93127 3.86735,5.72234 5.8846,8.51286 2.56926,3.89978 5.37108,7.58118 8.46557,10.97015 2.91473,3.21322 5.52644,6.72086 8.14681,10.2277 2.33038,3.10192 5.02355,5.82406 7.51882,8.75537 2.62551,3.16786 5.60813,5.93306 8.54166,8.73192 3.87532,3.31666 7.82988,6.50519 11.62661,9.93515 3.26558,2.81044 6.62742,5.47179 9.99507,8.12767 3.05326,2.44342 6.33141,4.52954 9.57945,6.63243 4.17122,3.22575 8.73874,5.68691 13.09789,8.55947 4.62908,2.7253 9.40555,5.05322 14.23232,7.28638 3.58247,1.6316 7.19229,3.14541 10.80688,4.69114 4.32462,1.92796 8.81749,3.33733 13.25048,4.92926 3.43703,1.21834 7.02297,1.45421 10.5019,2.46917 5.13853,1.55993 10.22371,3.30429 15.31285,5.057 5.48597,2.00376 11.21987,2.88046 16.83465,4.29251 4.99353,1.2464 10.10595,1.70533 15.17829,2.38357 5.61311,0.79892 11.21307,1.58185 16.86549,1.9612 5.12946,0.30089 10.26668,0.3411 15.40177,0.38559 5.25671,0.003 10.51292,-0.0435 15.76964,-0.0446 5.22648,0.0132 10.45293,0.009 15.67943,-0.003 4.93831,0.0563 9.87626,-0.0252 14.81433,-0.053 4.23636,-0.0984 8.48097,0.19851 12.70539,-0.19868 4.89424,-0.29405 9.70945,-1.27988 14.51346,-2.31021 4.5074,-0.83624 9.05814,-1.24218 13.58692,-1.89519 4.893,-1.11061 9.70134,-2.6228 14.51405,-4.10656 4.73316,-1.55955 9.48064,-3.04795 14.17732,-4.74532 4.01295,-1.76356 7.92873,-3.83023 12.0271,-5.3341 3.07796,-1.20936 5.77799,-3.23712 8.60469,-4.9898 0.40752,-0.29293 0.79262,-0.6291 1.22256,-0.8788 1.97055,-1.14447 0.93222,-0.15693 2.84163,-1.45318 1.23664,-0.83951 2.37663,-1.78011 3.6518,-2.57107 2.81784,-2.07016 5.78514,-3.86414 8.54623,-6.02914 3.00377,-1.5609 5.67183,-3.74557 8.4197,-5.78001 8.87592,-6.2138 22.35411,-19.88462 -13.21693,13.28124 0.0737,-0.08 1.0571,-0.9977 1.01183,-1.39202 -0.17593,-1.5329 -4.28432,-5.0247 -5.279,-6.0161 -3.6068,-3.68457 -7.78143,-6.43257 -11.9384,-9.23583 -3.19013,-1.91289 -6.3934,-3.82747 -9.78067,-5.26869 -3.52498,-1.75345 -7.16625,-3.20465 -10.67934,-4.98068 -2.90657,-1.20247 -5.67353,-2.77466 -8.6632,-3.70504 -4.30874,-1.39227 -8.3658,-3.56747 -12.53064,-5.39592 -3.86557,-2.03508 -7.91424,-3.51952 -11.93798,-5.09568 -4.62081,-1.63309 -9.24077,-3.28373 -13.91304,-4.72638 -4.584,-1.01811 -9.02133,-2.55842 -13.47731,-4.09117 -4.36557,-1.40799 -8.73663,-2.70997 -13.14865,-3.92747 -4.70426,-1.57865 -9.41075,-3.12614 -14.17591,-4.46537 -3.60932,-1.59256 -7.45794,-1.95434 -11.22416,-2.76767 -4.781,-0.94419 -9.50355,-2.19393 -14.30728,-3.00226 -4.77927,-0.62372 -9.59887,-1.03599 -14.32262,-2.09004 -4.11021,-0.75856 -8.17136,-1.77462 -12.30946,-2.33875 -4.26759,-0.38087 -8.54893,-0.81919 -12.76452,-1.67484 -3.55939,-0.86048 -7.18463,-1.2062 -10.8152,-1.3816 -2.88128,-0.0937 -5.76424,-0.0778 -8.64641,-0.10008 -3.74183,-0.0487 -7.48358,-0.028 -11.2256,-0.0265 -3.41979,0.004 -6.83943,0.0274 -10.25914,0.055 -3.41517,-0.0158 -6.82991,-0.0269 -10.24496,-0.0613 -4.3276,0.092 -8.68032,-0.31051 -12.98818,0.22372 -3.71231,0.5492 -7.42347,0.82187 -11.11614,1.5128 -3.99962,0.77057 -7.98749,1.52679 -12.03804,1.91306 -3.48535,0.46018 -6.75216,1.83143 -10.19764,2.51054 -3.15721,0.77001 -6.43015,0.98963 -9.56143,1.87851 -3.94374,0.85535 -7.80384,2.15982 -11.69293,3.3144 -4.31735,1.04163 -8.47816,2.66836 -12.63239,4.30816 -3.66984,1.1315 -7.26714,2.53846 -11.00372,3.39209 -3.47672,1.30679 -7.09772,2.04782 -10.58972,3.27103 -2.10386,1.08563 -4.43091,1.48923 -6.53108,2.57302 -1.80614,1.06888 -0.89569,0.56637 -2.73045,1.50956 -2.50646,1.06245 -4.7215,2.8259 -7.22299,3.91624 -1.71293,0.97573 -3.60859,1.48884 -5.36755,2.31582 -2.361112,1.1101 -1.403013,0.99438 -3.662632,2.29536 -0.666288,0.38363 -1.374904,0.66743 -2.06235,1.00114 -3.229818,1.83089 -6.405855,3.79635 -9.451165,5.99826 -2.648224,1.48156 -4.989459,3.57833 -7.307152,5.62001 -1.641617,1.04854 -3.027831,2.43554 -4.458958,3.78547 -0.412324,0.38892 -1.692214,1.49636 -1.279229,1.10832 11.621053,-10.91951 42.397856,-39.5464 -2.187687,1.96379 -13.422364,12.36313 25.737857,-25.95716 15.136503,-14.0481 -1.72019,1.6154 -3.317696,3.36038 -4.821959,5.22672 -1.929382,1.9745 -3.671568,4.16807 -5.457297,6.3027 -1.476711,1.83084 -2.783421,3.85346 -4.374889,5.5609 -1.552819,1.83001 -2.822849,3.90928 -4.359286,5.75147 -1.696872,2.46076 -3.588112,4.74283 -5.305837,7.1827 -0.27458,0.40614 -0.549148,0.81229 -0.823727,1.21843 0,0 -22.72693,16.26925 -22.72693,16.26925 l 0,0 c 0.246067,-0.46676 0.492133,-0.93354 0.738198,-1.4003 1.663931,-2.4715 3.447276,-4.80126 5.193899,-7.20069 1.299524,-2.04015 2.992552,-3.71145 4.249543,-5.80441 1.607616,-2.42207 -0.512027,0.61887 1.33853,-1.55684 1.103873,-1.29783 2.015688,-2.7892 3.197367,-4.01948 1.560064,-2.36688 3.529604,-4.34111 5.209693,-6.60313 1.800718,-1.53257 3.035842,-3.71161 4.777014,-5.31583 3.213341,-2.64268 -1.26779,1.14314 1.769783,-1.75913 8.121292,-7.75954 15.642803,-15.53364 24.093622,-22.46765 -6.453078,6.08191 -25.798349,24.34611 -19.359223,18.24574 9.000711,-8.52719 17.577303,-17.39394 27.161648,-24.99477 2.446756,-2.00231 4.911911,-3.94104 7.601381,-5.5233 3.11013,-1.98133 6.2364,-3.94008 9.49693,-5.60103 3.67097,-2.13647 7.48056,-3.86747 11.25407,-5.76027 2.36066,-1.43054 4.75298,-2.79067 7.24607,-3.90886 3.06886,-1.53222 6.30785,-2.55871 9.50448,-3.70196 3.5634,-0.98994 7.07415,-2.18449 10.64382,-3.14723 3.62921,-1.07896 7.2175,-2.32368 10.79745,-3.58971 4.189,-1.56854 8.43863,-2.92634 12.73097,-4.09588 3.97055,-1.14518 7.87867,-2.56276 11.92683,-3.34631 3.20448,-0.55738 6.39319,-1.18738 9.57602,-1.88389 3.40525,-0.85879 6.7738,-1.92878 10.27968,-2.18349 4.02104,-0.51969 7.98358,-1.38545 11.98302,-2.06816 3.72791,-0.5689 7.48235,-0.91924 11.22907,-1.29143 4.37667,-0.14304 8.75627,-0.026 13.13429,-0.0948 3.45151,-0.034 6.90272,-0.0454 10.35435,-0.0613 3.38814,0.027 6.7762,0.0498 10.16443,0.0479 3.76765,-0.005 7.535,0.003 11.30237,-0.0529 2.91909,-0.0175 5.84114,-0.0137 8.75318,0.24711 3.66279,0.34148 7.31154,0.84937 10.90913,1.70954 4.21503,0.71788 8.46374,1.10461 12.70171,1.60868 4.15731,0.68132 8.26758,1.67094 12.41377,2.43189 4.68239,0.89003 9.39284,1.51849 14.10093,2.2051 4.86227,0.85851 9.68187,1.98909 14.54649,2.83643 3.84114,0.69141 7.62748,1.55813 11.30332,3.02372 4.71011,1.45052 9.36872,3.09924 14.09719,4.46444 4.48127,1.18454 8.90449,2.57688 13.32602,4.01364 4.40022,1.56934 8.84559,2.89844 13.33202,4.12657 4.70699,1.51508 9.42437,2.99589 14.05484,4.78827 4.10143,1.49959 8.15579,3.09398 12.04033,5.22007 4.09594,1.89332 8.20947,3.77892 12.49916,5.06272 3.04182,1.10349 5.99643,2.50844 8.91159,3.97427 3.47811,1.73557 7.02132,3.31055 10.54188,4.93556 3.48601,1.59491 6.85077,3.46742 10.05179,5.69545 4.23141,2.94798 8.38046,6.01441 12.14585,9.69057 2.31409,2.19451 7.10921,5.87037 7.43457,9.52327 0.0468,0.52523 -0.21836,1.02704 -0.32755,1.54056 -9.44653,9.01491 -17.44626,17.95556 -27.64109,25.06852 -2.72877,2.07247 -5.6411,3.80163 -8.43087,5.76379 -2.887,2.00926 -5.78686,3.99764 -8.69794,5.96277 -2.53363,1.72941 -5.17325,3.20874 -7.73591,4.88234 -2.81652,1.83881 -5.79129,3.36023 -8.87741,4.54651 -3.98382,1.72696 -7.94195,3.53607 -11.97164,5.12193 -4.70187,1.66543 -9.47379,3.06187 -14.20945,4.60097 -4.91536,1.49871 -9.83286,3.10247 -14.88237,3.93245 -4.47386,0.63934 -8.98695,0.94761 -13.41745,1.938 -4.89531,0.9784 -9.80791,1.83677 -14.78354,2.09872 -4.28684,0.1915 -8.57691,0.1204 -12.86646,0.11987 -4.90651,-0.028 -9.81291,-0.10998 -14.71966,-0.0522 -5.22788,-0.0105 -10.45567,-0.0119 -15.68352,0.0106 -5.23891,0.0105 -10.47734,-0.0137 -15.71623,-0.0372 -5.19471,-0.005 -10.39912,0.0172 -15.57861,-0.49118 -5.65505,-0.58911 -11.29488,-1.31319 -16.93439,-2.06261 -5.14838,-0.68573 -10.34517,-1.13219 -15.38074,-2.59374 -5.67039,-1.44241 -11.42085,-2.51954 -16.97464,-4.49385 -5.03698,-1.84617 -10.14196,-3.37483 -15.30697,-4.70836 -3.58273,-0.75692 -7.23281,-1.2107 -10.65277,-2.72077 -4.4225,-1.70317 -8.93802,-3.08762 -13.28746,-5.02248 -3.69261,-1.4675 -7.37226,-2.95178 -10.94773,-4.75481 -4.82826,-2.39499 -9.51506,-5.1007 -14.23894,-7.74024 -4.45041,-2.75075 -9.02402,-5.2493 -13.28936,-8.36588 -3.3476,-2.10786 -6.70079,-4.23913 -9.78249,-6.81575 -3.40202,-2.6892 -6.74477,-5.47729 -9.99707,-8.3894 -3.7959,-3.45063 -7.81457,-6.5666 -11.65718,-9.95055 -3.09236,-2.78835 -6.2315,-5.56434 -8.91352,-8.85698 -2.50965,-3.00278 -5.22129,-5.79256 -7.57271,-8.95582 -2.54422,-3.45727 -5.11098,-6.89017 -7.94101,-10.06523 -3.067084,-3.52685 -6.022476,-7.16684 -8.644871,-11.12448 -2.182816,-2.77647 -4.287412,-5.61024 -6.172083,-8.65071 -1.924063,-3.19105 -3.874805,-6.35928 -5.805379,-9.54579 -1.879222,-3.2336 -4.085413,-6.21434 -5.771647,-9.58263 -1.505666,-2.83155 -3.09954,-5.59969 -4.730731,-8.34248 -2.328249,-3.5167 -4.640092,-7.03751 -6.799637,-10.68797 -2.117278,-3.74004 -4.096072,-7.5713 -6.182613,-11.33181 0,0 21.177833,-18.94015 21.177833,-18.94015 z"
       inkscape:connector-curvature="0" />
    <path
       style="fill:#000000"
       id="path3338"
       d="m 341.44087,773.42413 c -7.31899,7.35659 0.89549,-0.92626 17.94096,-16.66295 0.49696,-0.4588 -0.94259,0.98306 -1.40597,1.48386 -1.37411,1.48505 -2.52713,3.03207 -3.66173,4.74755 -1.80886,3.3061 -3.20365,6.90078 -4.26514,10.58668 -0.75886,2.83498 -0.88877,5.79252 -0.95231,8.7301 -0.03,2.87278 0.001,5.74579 0.0168,8.61856 -0.13691,3.13716 -0.0348,6.18185 0.64675,9.22991 0.41075,2.89069 1.48334,5.45009 2.56072,8.07361 1.19247,2.75442 2.1741,5.6128 3.22586,8.43601 1.15434,2.36569 2.11445,4.83645 3.13661,7.27429 1.17399,2.76732 3.09465,4.89888 4.98701,7.04304 1.53319,1.92899 3.16833,3.70647 4.93398,5.36359 0,0 -20.37106,19.78514 -20.37106,19.78514 l 0,0 c -1.82136,-1.7313 -3.50954,-3.60399 -5.11824,-5.58215 -2.04689,-2.40539 -4.14682,-4.78664 -5.56229,-7.74713 -1.11877,-2.46694 -2.00355,-5.05407 -3.19811,-7.48048 -0.99986,-2.80921 -2.04888,-5.6027 -3.24455,-8.31517 -1.04945,-2.80791 -2.41598,-5.4231 -2.73005,-8.51797 -0.81364,-3.25029 -1.40406,-6.37448 -1.13602,-9.78295 -0.005,-2.90014 -0.0154,-5.8003 -0.006,-8.70042 0.0206,-3.13687 -0.0252,-6.29892 0.57121,-9.38356 0.86987,-3.97316 2.39038,-7.68796 3.94234,-11.37964 1.22615,-2.57784 2.70167,-4.94783 4.70169,-6.85557 21.54951,-20.55535 13.93528,-14.54952 22.99014,-21.6099 0,0 -18.00233,22.64555 -18.00233,22.64555 z"
       inkscape:connector-curvature="0" />
    <path
       style="fill:#000000"
       id="path3340"
       d="m 238.47772,670.1092 c 2.46949,4.65725 5.33513,9.00986 8.26248,13.31376 2.67807,3.86529 5.58445,7.54625 8.74788,10.92246 3.42106,3.29156 7.07726,6.32517 10.79493,9.1919 3.05455,2.26961 6.20817,4.37873 9.4091,6.38396 2.58458,1.71169 5.18759,3.41312 7.89308,4.87732 2.30228,1.0243 4.58399,2.0891 6.91701,3.0138 2.70654,1.39713 5.4953,2.55749 8.24453,3.84755 4.56056,2.43134 9.27332,4.47137 13.96974,6.5426 2.76471,1.38604 1.41946,0.72928 4.03362,1.97558 0,0 -19.72486,20.27855 -19.72486,20.27855 l 0,0 c -2.52256,-1.31111 -1.23111,-0.64991 -3.87522,-1.98146 -4.69889,-2.12864 -9.37089,-4.3299 -14.08769,-6.40826 -2.80417,-1.1701 -5.59602,-2.3619 -8.3569,-3.65541 -2.3807,-1.04907 -4.78337,-2.04179 -7.08457,-3.30142 -2.67741,-1.59642 -5.30918,-3.28478 -7.90781,-5.03645 -3.2502,-2.06598 -6.38925,-4.36045 -9.46058,-6.73904 -3.76534,-3.0424 -7.586,-6.05277 -11.04727,-9.51967 -3.29533,-3.48281 -6.26301,-7.31311 -9.03067,-11.32905 -2.80345,-4.31896 -5.53051,-8.70164 -8.442,-12.92784 0,0 20.7452,-19.44888 20.7452,-19.44888 z"
       inkscape:connector-curvature="0" />
    <path
       style="fill:#000000"
       id="path3342"
       d="m 318.07923,869.41812 c -4.03205,-0.18579 -8.07077,-0.15637 -12.10551,-0.12158 -4.2415,0.009 -8.483,-0.0149 -12.72448,-0.0258 -3.9441,0.0422 -7.88829,0.0236 -11.83241,0.0558 -3.36574,0.0183 -6.73134,8.3e-4 -10.09715,0.0245 -3.25751,-0.0729 -6.45644,0.69092 -9.59149,1.59015 -2.81024,0.80038 -4.97678,2.80986 -7.38523,4.4585 -16.59239,14.95927 68.87118,-63.52433 -2.94072,2.86176 -6.56195,6.06616 13.04188,-12.24248 19.58519,-18.33379 0.53914,-0.50191 -1.0364,1.05906 -1.58297,1.55084 -7.74212,8.56532 -16.77575,16.02439 -25.02427,23.69097 -7.87955,6.15806 -1.89937,1.53106 18.43409,-17.31106 0.39729,-0.36817 -0.77764,0.759 -1.15417,1.1535 -1.18659,1.24324 -2.30052,2.57096 -3.41127,3.89738 -1.88175,2.40015 -3.70162,4.85871 -5.42071,7.40773 -1.77659,2.64482 -3.28311,5.50191 -5.01731,8.17885 -1.26435,2.02353 -2.20111,4.26163 -3.317,6.38626 -0.87194,1.98274 -1.47105,4.09488 -1.92086,6.24207 0,0 -22.1416,17.27901 -22.1416,17.27901 l 0,0 c 0.31871,-2.3321 0.76868,-4.58442 1.46495,-6.80283 0.80139,-2.42169 2.27762,-4.43556 3.13073,-6.84981 1.64624,-2.80129 3.55597,-5.41057 5.04581,-8.34033 1.7122,-2.57129 3.33441,-5.24913 5.33641,-7.55262 7.23155,-10.61794 18.21046,-17.67025 26.85212,-26.40295 -35.13889,32.99804 -23.21952,22.16736 -15.96901,14.83958 1.21001,-1.6214 0.10426,-0.2829 1.57332,-1.66364 7.11966,-6.69137 14.36268,-13.22435 21.31938,-20.12665 6.34072,-6.29116 -26.07556,24.2345 -19.47085,18.29257 25.73681,-23.15408 13.3742,-14.4378 22.60879,-20.8883 2.4723,-1.77662 5.13106,-3.09366 8.02586,-3.75438 3.29127,-0.75994 6.65526,-1.15076 10.01836,-1.09901 3.35119,0.0239 6.70215,0.007 10.05327,0.0245 3.91089,0.0323 7.82185,0.0133 11.73269,0.0558 4.25693,-0.0105 8.51385,-0.0352 12.77079,-0.0258 4.10735,0.036 8.21814,0.0588 12.32303,-0.12157 0,0 -19.16778,21.43061 -19.16778,21.43061 z"
       inkscape:connector-curvature="0" />
    <path
       style="fill:#000000"
       id="path3344"
       d="m 386.16952,791.44008 c 1.96552,3.57108 4.30248,6.90995 6.97927,9.84679 0.9313,1.21401 2.0022,2.20708 3.1823,3.09098 0,0 -20.28383,19.95345 -20.28383,19.95345 l 0,0 c -1.2046,-1.08207 -2.34851,-2.22064 -3.33196,-3.56424 -2.70553,-3.17339 -5.09086,-6.64996 -7.49496,-10.10887 0,0 20.94918,-19.21811 20.94918,-19.21811 z"
       inkscape:connector-curvature="0" />
    <path
       style="fill:#000000"
       id="path3346"
       d="m 302.22742,773.82238 c -2.26926,-0.17074 -4.46227,0.53726 -6.57305,1.27816 -0.99936,0.48344 -2.04314,0.89811 -2.93584,1.5709 -0.59594,0.59606 -0.27718,0.33101 -0.9527,0.79946 -4.47237,3.59573 -1.17005,0.94574 11.36395,-9.51309 0.14793,-0.12344 -0.30598,0.23731 -0.43588,0.3796 -0.36823,0.40334 -0.70196,0.90239 -1.02608,1.34402 -0.47855,1.00075 -0.95377,2.02501 -1.23936,3.10362 -0.27013,1.30357 -0.28025,2.64133 -0.30007,3.967 -0.0115,1.4273 -0.005,2.85468 -0.001,4.28201 -0.01,1.15512 0.44076,2.17934 0.98707,3.16731 0.69087,1.02732 1.40052,2.0491 2.02422,3.12095 2.60099,6.16239 -8.88845,9.40999 -12.54382,12.22156 -0.15923,0.12248 -0.40553,-0.0363 -0.60263,0.002 -0.16038,0.0315 -0.29732,0.13586 -0.44599,0.20379 -1.14922,0.44981 -2.38564,0.89903 -3.37801,1.6494 -4.38108,2.84033 -12.20996,10.06094 10.8357,-9.12173 0.1799,-0.14975 -0.35817,0.3016 -0.532,0.45836 -0.58127,0.52418 -0.44598,0.40568 -0.94231,1.01239 -0.81507,0.89389 -1.57011,1.90334 -2.03555,3.02497 -0.39804,1.23023 -0.82608,2.42999 -1.03664,3.71005 -0.17773,1.3672 -0.18075,2.7488 -0.19019,4.12508 -0.004,1.42828 0.002,2.85656 0.004,4.28484 0.0252,1.21216 -0.12156,2.44235 0.24356,3.61578 0.58193,0.83902 1.34444,1.48099 2.21003,2.00852 1.08655,0.86203 2.12475,1.77165 3.39856,2.34544 0.93964,0.2825 1.78908,0.842 2.62899,1.3464 0,0 -12.10261,10.83488 -12.10261,10.83488 l 0,0 c -0.79734,-0.50631 -1.6444,-0.90955 -2.51868,-1.26676 -1.26014,-0.70205 -2.38206,-1.588 -3.52311,-2.4649 -1.11054,-0.75873 -2.12065,-1.6159 -2.87624,-2.74415 -0.6081,-1.32193 -0.64214,-2.70326 -0.5792,-4.14079 -0.002,-1.43004 -0.005,-2.86007 -0.009,-4.2901 -0.002,-1.42377 -0.0105,-2.84894 0.071,-4.27097 0.10562,-1.34899 0.26797,-2.70576 0.89593,-3.92756 0.0538,-0.29654 0.19732,-1.16367 0.30442,-1.45689 0.28765,-0.78753 0.9964,-1.40978 1.32591,-2.18265 0.5016,-0.50772 0.81766,-1.1667 1.36182,-1.62711 7.24544,-6.13037 8.45405,-8.33834 13.92472,-11.33308 1.20878,-0.52072 2.38965,-1.11402 3.67143,-1.44202 4.96257,-0.98069 16.7376,-14.74963 -11.15498,9.72356 -0.21312,0.18699 0.60185,0.28094 0.84082,0.12837 0.0741,-0.0473 0.0446,-0.17014 0.0669,-0.25521 -0.47918,-1.12233 -1.33883,-2.06349 -1.98552,-3.09079 -0.66822,-1.21317 -1.30058,-2.43208 -1.45686,-3.83456 -0.002,-1.43119 -0.007,-2.86238 -0.01,-4.29358 0.001,-1.39422 -0.005,-2.79122 0.11373,-4.18154 0.0722,-0.62756 0.14005,-1.25507 0.33826,-1.85895 0.0591,-0.18005 0.14048,-0.352 0.21072,-0.52801 0.0907,-0.15373 0.20893,-0.29423 0.27198,-0.4612 0.0774,-0.20495 0.0962,-0.42747 0.14433,-0.6412 0.25484,-0.72488 0.49106,-0.96485 0.888,-1.57705 0.12245,-0.18883 0.12803,-0.4581 0.29765,-0.60602 10.81096,-9.42782 8.27525,-7.61907 13.26071,-11.13053 1.2457,-0.91191 2.71915,-1.45587 4.17575,-1.93587 2.28718,-0.64839 4.63695,-1.02188 7.01915,-1.02437 0,0 -11.49185,11.49185 -11.49185,11.49185 z"
       inkscape:connector-curvature="0" />
    <path
       style="fill:#000000"
       id="path3348"
       d="m 259.53482,777.71979 c -2.18662,0.35374 -4.33237,0.92766 -6.29559,1.96924 -0.70831,0.33421 -1.43325,0.76246 -2.04025,1.2637 -0.16217,0.13392 -0.5873,0.6003 -0.42557,0.46584 11.61021,-9.65266 15.33154,-13.8316 11.45872,-9.52585 -0.829,1.05215 -1.39277,2.28046 -1.7521,3.56434 -0.31311,1.36073 -0.33455,2.76272 -0.35684,4.15196 -0.0112,1.42825 -0.002,2.85656 0.002,4.28483 0.0157,1.35571 0.50458,2.57224 1.30148,3.64927 0.90374,1.13564 1.91572,2.16552 1.90139,3.68704 -17.83146,-15.43773 -8.13977,8.138 -12.99554,11.12956 -0.94835,0.58426 -0.052,-0.096 -1.09276,0.41467 -0.22193,0.1089 -0.69516,0.55931 -0.86641,0.7136 -4.22139,4.01702 0.22467,-0.23266 11.28714,-9.41741 0.18871,-0.15668 -0.3464,0.34758 -0.51172,0.52877 -0.5242,0.57453 -1.00322,1.17592 -1.45408,1.80846 -0.81045,1.23455 -1.35121,2.55987 -1.64044,4.00198 -0.031,0.228 -0.0619,0.45599 -0.0929,0.68399 0,0 -13.21089,9.40321 -13.21089,9.40321 l 0,0 c 0.0157,-0.25029 0.0314,-0.50058 0.0472,-0.75087 0.16133,-1.58066 0.4551,-3.14361 1.31337,-4.51322 0.37889,-0.81806 1.04716,-2.05616 1.73458,-2.65442 11.72962,-10.2081 8.19075,-7.71548 13.28995,-11.26692 0.3505,-0.19455 0.72675,-0.34067 1.07462,-0.53987 4.23855,-2.42709 14.40473,-18.85457 -10.61632,9.25842 0.23736,-4e-4 0.57723,0.15131 0.71066,-0.045 0.35121,-0.51676 -1.21765,-1.69564 -1.33454,-2.11233 -0.99653,-1.33196 -1.75636,-2.76927 -1.96247,-4.44305 -0.003,-1.43339 -0.01,-2.86676 -0.0128,-4.30015 0.002,-1.47229 -0.002,-2.94944 0.16959,-4.41399 0.22002,-1.46516 0.64975,-2.81093 1.35059,-4.11775 3.38273,-5.76915 9.55103,-10.01046 15.64477,-12.77708 2.14487,-0.76963 4.34388,-1.29927 6.53755,-1.90301 0,0 -11.16276,11.80204 -11.16276,11.80204 z"
       inkscape:connector-curvature="0" />
    <path
       style="fill:#000000"
       id="path3350"
       d="m 226.51313,781.67953 c -1.86617,-0.12194 -3.72116,-0.12593 -5.49208,0.52491 -0.19461,0.13939 -0.412,0.2515 -0.58383,0.41816 -0.16197,0.15709 -0.58055,0.68453 -0.40586,0.54173 3.97577,-3.25017 7.88735,-6.57809 11.82378,-9.87581 0.66883,-0.56031 -0.81026,0.69055 -1.14083,1.17104 -0.56297,1.15408 -0.56203,2.46456 -0.59558,3.72144 -0.0212,1.45717 0.005,2.91437 -0.007,4.37156 -0.0539,1.47868 -0.0104,2.93128 0.26058,4.38495 0.039,0.2181 0.0781,0.4362 0.11713,0.6543 0,0 -12.97612,9.75914 -12.97612,9.75914 l 0,0 c -0.0323,-0.20977 -0.0645,-0.41955 -0.0968,-0.62933 -0.29039,-1.54664 -0.52202,-3.0628 -0.40066,-4.64687 -0.0232,-1.45878 -0.022,-2.91785 -0.0326,-4.37677 -1.4e-4,-1.40529 -0.017,-2.821 0.21529,-4.21161 0.13208,-0.56048 0.26782,-1.41893 0.74086,-1.82381 3.90102,-3.3389 8.36601,-9.68405 14.23547,-11.18199 1.93473,-0.30399 3.87683,-0.23799 5.82976,-0.29289 0,0 -11.49185,11.49185 -11.49185,11.49185 z"
       inkscape:connector-curvature="0" />
  </g>
</svg>
