<?xml version="1.0" encoding="UTF-8" standalone="no"?>
<!-- Created with Inkscape (http://www.inkscape.org/) -->

<svg
   xmlns:dc="http://purl.org/dc/elements/1.1/"
   xmlns:cc="http://creativecommons.org/ns#"
   xmlns:rdf="http://www.w3.org/1999/02/22-rdf-syntax-ns#"
   xmlns:svg="http://www.w3.org/2000/svg"
   xmlns="http://www.w3.org/2000/svg"
   xmlns:sodipodi="http://sodipodi.sourceforge.net/DTD/sodipodi-0.dtd"
   xmlns:inkscape="http://www.inkscape.org/namespaces/inkscape"
   width="150mm"
   height="150mm"
   viewBox="0 0 531.49606 531.49606"
   id="svg2"
   version="1.1"
   inkscape:version="0.91 r13725"
   sodipodi:docname="coconut.svg">
  <defs
     id="defs4" />
  <sodipodi:namedview
     id="base"
     pagecolor="#ffffff"
     bordercolor="#666666"
     borderopacity="1.0"
     inkscape:pageopacity="0.0"
     inkscape:pageshadow="2"
     inkscape:zoom="0.98994949"
     inkscape:cx="137.51976"
     inkscape:cy="290.62451"
     inkscape:document-units="px"
     inkscape:current-layer="layer1"
     showgrid="false"
     inkscape:window-width="1680"
     inkscape:window-height="987"
     inkscape:window-x="-8"
     inkscape:window-y="-8"
     inkscape:window-maximized="1" />
  <metadata
     id="metadata7">
    <rdf:RDF>
      <cc:Work
         rdf:about="">
        <dc:format>image/svg+xml</dc:format>
        <dc:type
           rdf:resource="http://purl.org/dc/dcmitype/StillImage" />
        <dc:title></dc:title>
      </cc:Work>
    </rdf:RDF>
  </metadata>
  <g
     inkscape:label="Layer 1"
     inkscape:groupmode="layer"
     id="layer1"
     transform="translate(0,-520.86614)">
    <path
       style="fill:#008000"
       id="path3362"
       d="m 275.06993,684.45288 c -2.76588,2.54026 -5.55389,5.04687 -8.16072,7.75189 -2.07256,2.09989 -4.2698,4.06304 -6.27853,6.22488 -1.86336,1.94991 -3.87866,3.73495 -5.71205,5.71425 -2.02574,1.87733 -3.79826,3.96481 -5.57498,6.07063 -1.61497,1.81658 -2.99514,3.81027 -4.46506,5.73972 -1.49159,2.22369 -2.99532,4.42264 -4.55963,6.59463 -1.50314,2.06258 -2.6284,4.34274 -3.91536,6.53847 -1.54488,2.86499 -3.2461,5.63773 -4.86974,8.45704 -1.43517,2.93307 -3.05041,5.76996 -4.60474,8.63991 -1.55571,3.05589 -2.9641,6.19886 -4.24105,9.38213 -1.18834,2.96371 -2.14023,6.00216 -3.49739,8.89516 -1.11757,2.83566 -2.10745,5.74957 -2.93574,8.68715 -0.41939,2.75419 -1.48707,5.32123 -2.3514,7.94999 -0.77851,3.22663 -1.89847,6.35167 -2.84275,9.52951 -1.22014,3.5396 -1.93247,7.19292 -2.57958,10.86853 -0.47516,3.14636 -1.77744,6.05721 -2.43556,9.15724 -0.6053,2.65654 -1.35995,5.25593 -1.73512,7.96024 -0.19803,2.8356 -0.88813,5.59689 -1.29403,8.4042 -0.43986,2.48287 -1.18791,4.87853 -1.54693,7.38016 -0.0721,2.55174 -0.564,5.01765 -1.0797,7.50526 -0.56707,2.84693 -0.5566,5.75806 -0.78823,8.64003 -0.52235,3.82151 -1.54869,7.54044 -2.1519,11.35067 -0.52386,3.56432 -0.59777,7.17158 -0.64625,10.76739 -0.0202,3.29207 0.007,6.58419 0.0209,9.87624 0.008,2.94922 0.0268,5.8985 0.002,8.84766 -4.4e-4,3.35692 -0.008,6.71377 -0.0128,10.07066 0.004,3.21761 0.0154,6.4352 0.0216,9.65281 8.2e-4,2.94817 0.0174,5.89639 -0.008,8.84448 -0.0128,3.21762 -2.1e-4,6.43529 0.006,9.65292 0.0173,3.05166 -0.003,6.10319 -0.0118,9.15479 -0.022,3.77434 -0.0278,7.54889 -0.0168,11.3233 0.0144,3.2156 0.0261,6.4312 0.0322,9.64683 0.005,2.87157 0.005,5.74314 0.005,8.61472 3e-5,2.85245 -1.3e-4,5.70491 -2e-4,8.55736 -0.095,1.31564 0.0406,2.55995 0.37434,3.82448 0,0 -17.84793,13.84057 -17.84793,13.84057 l 0,0 c -0.53162,-1.44439 -0.95834,-2.83325 -0.78095,-4.40235 -8e-5,-2.85236 -2.4e-4,-5.70472 -2e-4,-8.55707 1.8e-4,-2.8739 2.9e-4,-5.7478 0.005,-8.62169 0.006,-3.23122 0.0179,-6.46242 0.0322,-9.69361 0.011,-3.76627 0.005,-7.53268 -0.0168,-11.29888 -0.009,-3.04587 -0.0291,-6.09167 -0.0118,-9.1376 0.006,-3.22058 0.0189,-6.44119 0.006,-9.66176 -0.0259,-2.94412 -0.009,-5.88839 -0.008,-8.8326 0.006,-3.22811 0.0181,-6.45621 0.0218,-9.68432 -0.005,-3.35011 -0.0121,-6.70018 -0.014,-10.05031 -0.0266,-2.94457 -0.0106,-5.88929 -0.0148,-8.83395 10e-4,-3.31432 0.003,-6.62866 0.0237,-9.94293 0.0266,-3.67384 0.0266,-7.36109 0.46154,-11.01455 0.53032,-3.80353 1.4466,-7.51556 2.15648,-11.27659 0.47288,-2.87818 0.17157,-5.81351 0.6373,-8.70195 0.3946,-2.48469 1.28347,-4.84686 1.17864,-7.39224 0.22269,-2.53294 0.60514,-5.03869 1.5534,-7.41685 0.30869,-2.81992 1.0011,-5.56379 1.29852,-8.36958 0.24442,-2.76666 0.69573,-5.49633 1.69267,-8.10494 0.46588,-3.21567 1.60329,-6.12147 2.46008,-9.22654 0.80399,-3.66703 1.0837,-7.45803 2.46096,-10.99726 0.83704,-3.20936 2.07254,-6.29895 2.78136,-9.53775 0.71468,-2.64776 1.93683,-5.14143 2.38947,-7.84 0.65704,-3.11067 1.95621,-5.99418 2.72207,-9.07582 1.33506,-2.88188 2.55791,-5.74673 3.6122,-8.7479 1.12433,-3.31487 2.77106,-6.40562 4.02614,-9.67002 1.65275,-2.82379 3.24582,-5.70682 4.6629,-8.64982 1.50078,-2.86744 3.2756,-5.56318 4.80214,-8.41403 1.16525,-2.26052 2.35096,-4.56952 3.8328,-6.62066 1.26308,-2.38405 3.2179,-4.2857 4.47338,-6.68825 1.30516,-2.04526 2.74258,-4.08294 4.42666,-5.83462 1.57418,-2.2631 3.35666,-4.49132 5.49353,-6.24868 1.8103,-2.01799 3.58616,-4.03651 5.71618,-5.72022 1.9982,-2.22269 4.00207,-4.40461 6.31987,-6.30001 2.54247,-2.72036 5.13238,-5.39003 8.0246,-7.73744 0,0 19.27725,-11.81311 19.27725,-11.81311 z"
       inkscape:connector-curvature="0" />
    <path
       style="fill:#008000"
       id="path3364"
       d="m 282.47101,679.2943 c 3.77981,1.55524 7.44248,3.41215 11.04566,5.34154 3.53705,1.60601 6.88976,3.56282 10.2127,5.56523 2.73595,1.62725 5.25327,3.54233 7.77938,5.46424 2.28847,1.75753 4.16163,4.01466 5.64125,6.47881 1.57683,2.1773 2.97956,4.45615 4.35352,6.76522 1.38522,2.34825 2.56305,4.79515 3.86138,7.19245 1.71229,2.81291 3.27009,5.69523 4.64957,8.68643 1.11103,2.94872 2.5033,5.77626 3.7909,8.65067 1.35903,3.06786 2.7591,6.10846 3.84218,9.28788 0.98236,3.04283 1.16463,6.24285 1.78106,9.36295 0.63312,2.86606 0.89392,5.78673 1.04142,8.71183 0.0438,2.8717 0.72068,5.67997 1.08735,8.52027 0.33528,2.86499 0.39006,5.7514 0.42769,8.63247 0.0373,3.21659 -0.004,6.43318 -0.0133,9.64977 -0.002,1.81016 0.001,3.62032 0.005,5.43048 0,0 -11.37735,8.2651 -11.37735,8.2651 l 0,0 c 0.005,-1.81448 0.0113,-3.62896 0.0125,-5.44345 -0.003,-3.20019 -0.0255,-6.40033 -0.0265,-9.60054 -0.0239,-2.83801 -0.0531,-5.6809 -0.33417,-8.50763 -0.3302,-2.87996 -1.03899,-5.71292 -1.1528,-8.60679 -0.11001,-2.86493 -0.30205,-5.73273 -0.90421,-8.54363 -0.62836,-3.07716 -0.83138,-6.20853 -1.65078,-9.2468 -1.01556,-3.15445 -2.44872,-6.12404 -3.76939,-9.15671 -1.31056,-2.86231 -2.68213,-5.70482 -3.78703,-8.65201 -1.33123,-2.97894 -2.86122,-5.83977 -4.60245,-8.59923 -1.28586,-2.38411 -2.50163,-4.78988 -3.8537,-7.13435 -1.34788,-2.32755 -2.74953,-4.60455 -4.32788,-6.78405 -1.34823,-2.34195 -3.16062,-4.41449 -5.31758,-6.05111 -2.44592,-1.92824 -4.9239,-3.79809 -7.60767,-5.39403 -3.31069,-1.98246 -6.65539,-3.8927 -10.15957,-5.5168 -3.55453,-1.88832 -7.1347,-3.83143 -10.96679,-5.0918 0,0 10.32001,-9.67641 10.32001,-9.67641 z"
       inkscape:connector-curvature="0" />
    <path
       style="fill:#008000"
       id="path3366"
       d="m 283.10723,683.78751 c -1.92249,3.55681 -3.83893,7.11588 -5.763,10.67148 -1.54975,3.13142 -2.71002,6.4166 -3.76122,9.74119 -1.05944,3.39039 -1.34356,6.93732 -1.52279,10.46385 -0.11527,3.00493 -0.0982,6.01279 -0.0911,9.01931 0.01,2.85672 0.0154,5.71345 0.0186,8.57018 0.003,2.85481 0.003,5.70962 0.003,8.56443 0,2.857 -8e-5,5.714 -1.3e-4,8.571 -4e-5,2.85717 -4e-5,5.71435 -5e-5,8.57152 0,2.85714 0,5.71429 0,8.57144 0.34204,2.42774 0.74164,4.86564 1.24806,7.26687 0.55088,2.84047 1.50498,5.5503 2.55807,8.2353 0.89947,2.71875 1.82728,5.4206 2.70095,8.14842 1.21378,2.97549 2.51584,5.91894 3.57752,8.95332 0.76884,2.51959 2.41856,4.50434 3.77463,6.69746 0.88279,1.21471 0.44808,0.59117 1.30224,1.87193 0,0 -10.93489,8.96415 -10.93489,8.96415 l 0,0 c -0.82959,-1.26936 -0.38922,-0.628 -1.32587,-1.92078 -1.37309,-2.30058 -3.14192,-4.34101 -3.93537,-6.9645 -1.00408,-3.05606 -2.31663,-6.00512 -3.58493,-8.95857 -0.92535,-2.68606 -1.79552,-5.38353 -2.65623,-8.08999 -1.07175,-2.74075 -2.14505,-5.47353 -2.70011,-8.37787 -0.64024,-2.47147 -0.882,-5.041 -1.43304,-7.53664 0,-2.85715 -10e-6,-5.71429 0,-8.57144 0,-2.85718 0,-5.71435 4e-5,-8.57153 3e-5,-2.85697 10e-5,-5.71395 1.1e-4,-8.57092 -7e-5,-2.85438 -5e-5,-5.70876 -0.002,-8.56314 -0.003,-2.85672 -0.007,-5.71345 -0.0156,-8.57017 -0.007,-3.03088 -0.0228,-6.06273 0.0743,-9.09251 0.15517,-3.61188 0.37908,-7.25755 1.33454,-10.76101 1.00426,-3.39897 2.15233,-6.73611 3.63079,-9.96108 1.78262,-3.58675 3.90471,-7.00912 5.69269,-10.60036 0,0 11.81118,-7.77134 11.81118,-7.77134 z"
       inkscape:connector-curvature="0" />
    <path
       style="fill:#008000"
       id="path3368"
       d="m 289.54926,681.41071 c 3.61379,-0.83268 7.13011,-1.9923 10.70937,-2.94826 3.09632,-0.52352 6.14886,-1.18798 9.22913,-1.79871 3.25358,-0.49262 6.54502,-0.61718 9.82984,-0.69284 3.22897,-0.28567 6.37203,0.235 9.55192,0.69686 2.81794,0.35991 5.48561,1.34208 8.29816,1.7751 2.94287,0.82549 5.94342,1.41944 8.79055,2.54682 2.68502,1.19622 5.58203,1.66537 8.39594,2.45072 3.16835,0.37184 5.89047,1.84337 8.7339,3.16129 2.76664,1.74415 5.57063,3.48222 8.21946,5.40523 2.22675,1.55427 4.23406,3.41514 6.31021,5.17211 2.48963,1.75883 4.60189,3.95993 6.95929,5.88618 2.60517,1.9335 4.43811,4.62226 6.57503,7.01428 2.21221,2.47724 3.77622,5.33943 4.98929,8.40979 0.65371,2.10382 0.31345,1.10322 1.00844,3.00596 0,0 -11.10254,8.68051 -11.10254,8.68051 l 0,0 c -0.72451,-1.9557 -0.39774,-0.95362 -0.97474,-3.00807 -1.09202,-2.94253 -2.59979,-5.63358 -4.68813,-7.9961 -2.08808,-2.33783 -3.84989,-4.9907 -6.4219,-6.85387 -2.36341,-1.92668 -4.49301,-4.11838 -6.9798,-5.89086 -2.07205,-1.71288 -4.05411,-3.54352 -6.24712,-5.09462 -2.5845,-1.85818 -5.27507,-3.60489 -8.00688,-5.23328 -2.79144,-1.29304 -5.54864,-2.47632 -8.61348,-2.96219 -2.8446,-0.7936 -5.77301,-1.29412 -8.46885,-2.55645 -2.80551,-1.01185 -5.73352,-1.62002 -8.62747,-2.32504 -2.76931,-0.51422 -5.43226,-1.4759 -8.23873,-1.78353 -3.12376,-0.44873 -6.23474,-0.73973 -9.3959,-0.51457 -3.23269,0.0975 -6.47946,0.24073 -9.65999,0.87311 -3.04167,0.64432 -6.10991,1.12195 -9.13519,1.83415 -3.61374,1.01905 -7.20668,2.1228 -10.88884,2.87887 0,0 9.84903,-10.13259 9.84903,-10.13259 z"
       inkscape:connector-curvature="0" />
    <path
       style="fill:#008000"
       id="path3370"
       d="m 274.39013,690.61688 c -2.84039,-2.5487 -6.1448,-4.56515 -9.62597,-6.10888 -3.79025,-1.16566 -7.70084,-1.89261 -11.63042,-2.39991 -3.56258,-0.41835 -7.15179,-0.47335 -10.73428,-0.50183 -3.088,-0.28292 -6.04095,0.24629 -9.06328,0.74384 -2.98611,0.2489 -5.84905,1.11916 -8.7973,1.61057 -3.23722,0.86063 -6.41786,1.9585 -9.3867,3.51582 -2.6194,1.3135 -5.46408,2.25725 -7.9764,3.76605 -2.33042,0.84254 -4.29022,2.19505 -6.27335,3.6524 2.26299,-2.43211 -5.96113,4.53353 -3.19318,2.18067 20.63286,-17.5387 4.56469,-3.48516 -2.7393,2.25129 -2.45447,1.40857 -4.67536,3.15722 -7.02048,4.72362 -4.86341,2.97096 -14.46614,11.45663 4.38756,-4.26673 -2.5875,2.36266 -4.47427,5.33262 -6.46583,8.18222 -1.97009,2.77166 -3.57599,5.76773 -5.28152,8.70128 -1.20642,2.12498 -2.54473,4.20483 -3.43455,6.48757 -0.58611,2.12018 -1.19809,4.22936 -1.64771,6.38335 0,0 -11.56595,8.07525 -11.56595,8.07525 l 0,0 c 0.38184,-2.21217 1.02197,-4.33956 1.5185,-6.52053 0.6881,-2.4672 2.06552,-4.56232 3.28358,-6.79342 1.90957,-2.83071 3.27492,-6.01237 5.27988,-8.79452 2.03017,-2.82898 3.80777,-5.86943 6.25091,-8.37415 5.65602,-4.81795 10.81894,-9.71627 17.0307,-13.64115 2.29543,-1.63937 4.67434,-3.156 6.96975,-4.79411 0.32386,-0.25291 1.28488,-1.0246 0.97157,-0.75874 -3.25959,2.76596 -13.17501,10.89774 -9.81111,8.25963 5.00927,-3.92848 9.44126,-8.48749 14.81782,-11.87972 2.04026,-1.38674 4.16337,-2.52938 6.4145,-3.53933 2.65508,-1.23417 5.31175,-2.46252 7.96579,-3.69792 3.08645,-1.44655 6.37079,-2.51935 9.69532,-3.26159 2.93275,-0.56153 5.8319,-1.28751 8.80884,-1.59714 3.06263,-0.51291 6.1056,-0.73558 9.21636,-0.54556 3.61756,0.0563 7.24148,0.14079 10.82933,0.65521 4.03278,0.59157 8.09359,1.29002 11.93699,2.68137 3.54182,1.70024 6.87953,3.81126 9.92371,6.30005 0,0 -10.65378,9.30504 -10.65378,9.30504 z"
       inkscape:connector-curvature="0" />
    <path
       style="fill:#008000"
       id="path3372"
       d="m 280.56915,692.46218 c 0.13863,-3.99816 -0.45543,-7.97966 -1.31421,-11.87278 -0.74416,-3.15686 -1.54219,-6.34519 -2.85729,-9.31835 -1.20118,-2.61574 -2.8381,-5.00986 -4.33397,-7.46552 -1.67424,-2.73254 -3.37941,-5.35779 -5.63376,-7.64565 -1.88008,-2.01121 -3.72898,-4.08138 -5.98669,-5.67759 -1.87823,-1.7595 -3.98035,-3.19196 -6.16763,-4.53382 -2.80247,-1.60618 -5.53812,-3.33822 -8.58177,-4.44924 -2.70529,-0.96662 -5.08762,-2.59176 -7.82286,-3.46585 -2.26914,-1.19025 -4.79006,-1.6383 -7.21114,-2.42388 -2.73651,-0.61743 -5.46341,-1.28054 -8.224,-1.79864 -3.15687,-0.54704 -6.23411,-1.40426 -9.41788,-1.8283 -2.8605,-0.32286 -5.74248,-0.3432 -8.61747,-0.36258 -2.85303,-0.008 -5.70607,0.003 -8.5591,0.008 -2.76445,-0.0614 -5.43465,0.67977 -8.00252,1.61851 -2.66375,0.50735 -4.95502,1.78073 -7.3123,3.05795 -1.98414,0.70027 -3.58007,2.0217 -5.2947,3.18035 0,0 9.35807,-10.54226 9.35807,-10.54226 l 0,0 c 1.72485,-1.16606 3.5014,-2.21996 5.40766,-3.06907 2.42075,-1.22265 4.83992,-2.30642 7.49137,-2.93984 2.6818,-0.86949 5.49708,-1.34305 8.32257,-1.27929 2.85684,-0.005 5.71377,-0.017 8.57057,0.004 2.91952,0.0385 5.84727,0.0959 8.74323,0.50545 3.17918,0.50275 6.27511,1.36902 9.45053,1.88693 2.80584,0.55714 5.62256,1.11746 8.37518,1.89322 2.42717,0.78538 4.94905,1.26834 7.23583,2.44217 2.6845,1.00454 5.10037,2.5716 7.80418,3.54367 3.08879,1.23727 5.92581,2.97351 8.82058,4.60301 2.18096,1.40082 4.30757,2.85535 6.22028,4.61442 2.28014,1.69749 4.20239,3.78185 6.10771,5.88147 2.32298,2.36745 4.11109,5.06419 5.85545,7.87509 1.54505,2.49255 3.19051,4.95087 4.42855,7.61142 1.42493,3.03336 2.24978,6.3215 3.00884,9.57566 0.87857,3.96357 1.51563,7.99628 1.56981,12.06477 0,0 -11.43312,8.30665 -11.43312,8.30665 z"
       inkscape:connector-curvature="0" />
    <path
       style="fill:#008000"
       id="path3374"
       d="m 280.98012,686.69826 c 2.2795,-2.99351 4.04059,-6.35063 5.77485,-9.67971 1.67462,-3.28609 3.98837,-6.15642 6.21369,-9.07236 5.08655,-6.2955 12.09169,-11.13181 18.22904,-16.16169 2.98831,-1.83157 6.20359,-3.18572 9.47205,-4.42279 3.21652,-1.1728 6.5515,-1.901 9.7534,-3.11914 3.3185,-1.34115 6.80552,-2.03882 10.35077,-2.39675 2.93679,-0.231 5.8852,-0.21464 8.82881,-0.21189 2.85317,0.009 5.70633,0.0185 8.5595,0.0235 2.98303,0.2829 5.80733,1.216 8.69054,1.95293 2.98263,0.51163 5.73291,1.80562 8.59935,2.71358 2.45902,1.14984 5.01818,2.04556 7.46291,3.22631 2.53836,1.14345 4.92676,2.62258 7.31581,4.05279 2.59602,1.95905 5.3998,3.62124 8.04672,5.5021 1.58206,1.29969 3.25411,2.47976 4.8606,3.74951 0,0 -10.59541,9.27434 -10.59541,9.27434 l 0,0 c -1.60131,-1.2398 -3.24913,-2.4179 -4.82295,-3.6929 -2.62334,-1.85002 -5.35328,-3.5553 -7.9759,-5.40774 -2.37307,-1.37683 -4.70923,-2.85269 -7.22685,-3.95148 -2.42327,-1.09253 -4.90864,-2.03644 -7.34072,-3.10871 -2.82494,-0.95757 -5.59475,-2.10332 -8.54344,-2.64936 -2.77661,-0.74702 -5.54789,-1.57848 -8.44455,-1.6913 -2.85219,-0.006 -5.70437,-0.0177 -8.55657,-0.0213 -2.90267,0.007 -5.81259,0.006 -8.70269,0.31241 -3.46139,0.44805 -6.83568,1.27912 -10.0796,2.59001 -3.23134,1.12347 -6.56703,1.91367 -9.75494,3.17267 -3.18825,1.29709 -6.3633,2.64453 -9.19313,4.64089 18.57881,-15.80934 6.65276,-6.16672 2.93565,-1.88978 -2.1329,2.94499 -4.57187,5.6706 -6.34327,8.87198 -1.66974,3.38143 -3.52482,6.68081 -5.53542,9.86998 0,0 -11.97825,7.52385 -11.97825,7.52385 z"
       inkscape:connector-curvature="0" />
    <path
       style="fill:#008000"
       id="path3376"
       d="m 200.6287,827.11255 c 9.71148,-8.14226 11.93822,-10.2651 7.15463,-5.83049 0,0 -11.91369,7.26945 -11.91369,7.26945 l 0,0 c 5.56532,-5.56463 1.15037,-1.25282 14.02251,-12.08804 0,0 -9.26345,10.64908 -9.26345,10.64908 z"
       inkscape:connector-curvature="0" />
    <path
       style="fill:#008000"
       id="path3378"
       d="m 204.40814,865.29279 c -1.98477,3.21865 -4.16128,6.30983 -6.25984,9.45353 -0.33589,0.45412 -0.67179,0.90824 -1.00768,1.36236 0,0 -11.90048,7.5052 -11.90048,7.5052 l 0,0 c 0.34945,-0.43523 0.69891,-0.87046 1.04836,-1.30568 2.19677,-3.04103 4.28196,-6.18649 6.22202,-9.3975 0,0 11.89762,-7.61791 11.89762,-7.61791 z"
       inkscape:connector-curvature="0" />
    <path
       style="fill:#008000"
       id="path3380"
       d="m 195.0645,939.80117 c -3.34315,2.39113 -6.57632,4.97837 -9.71806,7.64123 3.04738,-2.51325 6.09475,-5.02649 9.14213,-7.53974 0,0 -11.96986,7.31433 -11.96986,7.31433 l 0,0 c 4.0064,-3.44832 8.0128,-6.89664 12.0192,-10.34496 3.21393,-2.6535 6.50657,-5.2123 9.83163,-7.72465 0,0 -9.30504,10.65379 -9.30504,10.65379 z"
       inkscape:connector-curvature="0" />
    <path
       style="fill:#ffffff"
       id="path3382"
       d="m 208.94015,623.70174 c -0.84556,2.34371 -1.3615,4.78049 -1.83044,7.221 0,0 -11.50329,8.0435 -11.50329,8.0435 l 0,0 c 0.4294,-2.46478 0.91438,-4.92002 1.62704,-7.32163 0,0 11.70669,-7.94287 11.70669,-7.94287 z"
       inkscape:connector-curvature="0" />
    <path
       style="fill:#ffffff"
       id="path3384"
       d="m 224.85487,645.31932 c 0.15184,-2.05693 0.41855,-4.10294 0.65114,-6.15171 0,0 11.4247,-8.10719 11.4247,-8.10719 l 0,0 c -0.21961,1.98348 -0.45073,3.96584 -0.64272,5.95226 0,0 -11.43312,8.30664 -11.43312,8.30664 z"
       inkscape:connector-curvature="0" />
    <path
       style="fill:#ffffff"
       id="path3386"
       d="m 253.74991,660.93684 c 1.52353,-2.88164 2.45166,-5.99453 3.14951,-9.16158 0,0 11.50489,-8.01609 11.50489,-8.01609 l 0,0 c -0.58654,3.23859 -1.47264,6.4024 -2.84322,9.40633 0,0 -11.81118,7.77134 -11.81118,7.77134 z"
       inkscape:connector-curvature="0" />
    <path
       style="fill:#ffffff"
       id="path3388"
       d="m 251.99773,686.7479 c 0.0435,-2.47059 0.0747,-1.23181 -0.0961,-3.71628 0,0 11.28363,-8.35231 11.28363,-8.35231 l 0,0 c 0.27781,2.55958 0.20122,1.30526 0.24563,3.76194 0,0 -11.43312,8.30665 -11.43312,8.30665 z"
       inkscape:connector-curvature="0" />
    <path
       style="fill:#ffffff"
       id="path3390"
       d="m 228.12297,699.55541 c 2.18777,-2.55159 4.69904,-4.80986 6.5016,-7.66321 1.28772,-2.45047 1.6755,-5.2073 1.55984,-7.94307 0,0 11.33931,-8.38589 11.33931,-8.38589 l 0,0 c 0.35652,2.91411 -0.0321,5.89617 -1.088,8.6422 -1.54009,3.0543 -3.98157,5.38589 -6.3345,7.82611 0,0 -11.97825,7.52386 -11.97825,7.52386 z"
       inkscape:connector-curvature="0" />
    <path
       style="fill:#ffffff"
       id="path3392"
       d="m 221.02044,689.43155 c 0.33207,-0.52569 0.66415,-1.05137 0.99623,-1.57706 0,0 11.7922,-7.63613 11.7922,-7.63613 l 0,0 c -0.29694,0.53176 -0.59388,1.06352 -0.89082,1.59528 0,0 -11.89761,7.61791 -11.89761,7.61791 z"
       inkscape:connector-curvature="0" />
    <path
       style="fill:#ffffff"
       id="path3394"
       d="m 290.68232,709.52306 c 0.45909,-2.75184 0.71155,-5.53077 0.94577,-8.3087 0,0 11.38575,-8.13842 11.38575,-8.13842 l 0,0 c -0.19627,2.77438 -0.45497,5.5422 -0.78296,8.30443 0,0 -11.54856,8.14269 -11.54856,8.14269 z"
       inkscape:connector-curvature="0" />
    <path
       style="fill:#ffffff"
       id="path3396"
       d="m 297.91699,735.30832 c 1.07525,-3.60387 2.24154,-7.18748 3.12982,-10.84419 0.45648,-3.61464 1.5032,-7.01661 3.09371,-10.28631 0.27992,-0.53832 0.55985,-1.07663 0.83977,-1.61494 0,0 11.75176,-7.70345 11.75176,-7.70345 l 0,0 c -0.2822,0.53943 -0.5644,1.07885 -0.84661,1.61828 -1.74112,3.12491 -2.94136,6.40984 -3.28269,9.9883 -0.82359,3.68403 -2.0902,7.23267 -2.97907,10.89944 0,0 -11.70669,7.94287 -11.70669,7.94287 z"
       inkscape:connector-curvature="0" />
    <path
       style="fill:#ffffff"
       id="path3398"
       d="m 305.17848,753.79398 c 1.9639,-3.00986 3.57437,-6.14549 4.56988,-9.60105 0.78618,-2.9177 0.69289,-5.95018 0.98617,-8.93012 0.36055,-2.65764 1.27478,-5.24509 2.51074,-7.61852 0.22309,-0.35401 0.44617,-0.70803 0.66926,-1.06204 0,0 11.88015,-7.64009 11.88015,-7.64009 l 0,0 c -0.22651,0.35033 -0.45301,0.70067 -0.67952,1.05101 -1.52167,2.0409 -2.30391,4.68169 -2.86769,7.13247 -0.50152,3.00466 -0.16912,6.10827 -0.90655,9.09377 -0.84973,3.51973 -2.20858,6.85461 -4.35126,9.80323 0,0 -11.81118,7.77134 -11.81118,7.77134 z"
       inkscape:connector-curvature="0" />
    <path
       style="fill:#ffffff"
       id="path3400"
       d="m 313.4263,769.60504 c 0.10434,-3.98858 0.48367,-7.99808 1.15099,-11.93357 0.61388,-2.9036 1.31394,-5.77455 2.24907,-8.59167 0.9506,-2.43957 2.36198,-4.6516 3.50365,-6.99896 0,0 11.74326,-7.78942 11.74326,-7.78942 l 0,0 c -1.01614,2.39572 -2.39637,4.58565 -3.59057,6.89457 -0.98296,2.771 -1.698,5.58843 -2.36201,8.45019 -0.91607,3.78014 -1.16339,7.78867 -1.26127,11.66221 0,0 -11.43312,8.30665 -11.43312,8.30665 z"
       inkscape:connector-curvature="0" />
    <path
       style="fill:#ffffff"
       id="path3402"
       d="m 373.74991,676.65112 c 1.78249,-3.4009 2.697,-7.14404 3.80149,-10.79655 0.77551,-2.24763 0.38425,-1.14339 1.1722,-3.31328 0,0 11.66131,-7.86561 11.66131,-7.86561 l 0,0 c -0.78986,2.16482 -0.38021,1.079 -1.22998,3.25704 -1.10627,3.67784 -2.05689,7.41729 -3.59384,10.94707 0,0 -11.81118,7.77133 -11.81118,7.77133 z"
       inkscape:connector-curvature="0" />
    <path
       style="fill:#ffffff"
       id="path3404"
       d="m 354.85487,666.7479 c 0.0156,-3.92347 -0.006,-7.80969 0.57276,-11.69611 0,0 11.44289,-8.02218 11.44289,-8.02218 l 0,0 c -0.7291,3.78007 -0.7637,7.56958 -0.58253,11.41164 0,0 -11.43312,8.30665 -11.43312,8.30665 z"
       inkscape:connector-curvature="0" />
    <path
       style="fill:#ffffff"
       id="path3406"
       d="m 367.91699,726.73689 c 1.07525,-3.60387 2.24154,-7.18748 3.12982,-10.84419 0.42718,-2.17001 0.24077,-1.09429 0.56285,-3.22654 0,0 11.50266,-8.11536 11.50266,-8.11536 l 0,0 c -0.2852,2.20923 -0.11657,1.09445 -0.50957,3.34378 -0.82359,3.68403 -2.0902,7.23267 -2.97907,10.89944 0,0 -11.70669,7.94287 -11.70669,7.94287 z"
       inkscape:connector-curvature="0" />
    <path
       style="fill:#ffffff"
       id="path3408"
       d="m 349.14058,708.17647 c 0.0778,-3.99733 0.0477,-7.9959 0.0343,-11.99371 0,0 11.36448,-8.25678 11.36448,-8.25678 l 0,0 c -0.0132,3.98119 -0.044,7.96316 0.0343,11.94384 0,0 -11.43312,8.30665 -11.43312,8.30665 z"
       inkscape:connector-curvature="0" />
    <path
       style="fill:#ffffff"
       id="path3410"
       d="m 289.07019,792.38556 c -3.39772,1.99445 -6.62632,4.29603 -9.69177,6.77462 3.0805,-2.54442 6.13613,-5.11927 9.24151,-7.63327 0.44533,-0.36053 -0.82038,0.80159 -1.25866,1.17065 -3.94692,3.32346 -7.93013,6.6036 -11.89519,9.9054 0,0 9.28203,-10.5926 9.28203,-10.5926 l 0,0 c -3.1368,2.66101 -6.26031,5.33776 -9.41039,7.98303 -0.44289,0.37192 0.85872,-0.77489 1.28808,-1.16233 3.99546,-3.4098 7.99092,-6.81959 11.98637,-10.22938 3.16747,-2.44191 6.45803,-4.76458 9.98135,-6.66618 0,0 -9.52333,10.45006 -9.52333,10.45006 z"
       inkscape:connector-curvature="0" />
    <path
       style="fill:#ffffff"
       id="path3412"
       d="m 281.92733,785.2427 c -3.55679,1.33338 -6.76011,3.39382 -10.21578,4.93532 -1.79804,1.01432 -3.65139,1.77749 -5.69858,2.03024 0,0 9.79786,-10.17266 9.79786,-10.17266 l 0,0 c 1.89791,-0.50805 3.6566,-1.3427 5.40586,-2.23211 3.41189,-1.6691 6.75828,-3.47011 10.23397,-5.01084 0,0 -9.52333,10.45005 -9.52333,10.45005 z"
       inkscape:connector-curvature="0" />
    <path
       style="fill:#ffffff"
       id="path3414"
       d="m 277.23594,765.93006 c -3.36645,-0.20846 -6.69793,0.10259 -9.97179,0.88113 0,0 9.71278,-10.11955 9.71278,-10.11955 l 0,0 c 3.39166,-0.6087 6.80521,-0.82766 10.25193,-0.7545 0,0 -9.99292,9.99292 -9.99292,9.99292 z"
       inkscape:connector-curvature="0" />
    <path
       style="fill:#ffffff"
       id="path3416"
       d="m 271.52166,744.50149 c -0.59788,-0.009 -1.19576,-0.0189 -1.79364,-0.0284 0,0 9.93608,-9.93608 9.93608,-9.93608 l 0,0 c 0.61682,-0.009 1.23365,-0.0189 1.85047,-0.0284 0,0 -9.99291,9.99292 -9.99291,9.99292 z"
       inkscape:connector-curvature="0" />
    <path
       style="fill:#ffffff"
       id="path3418"
       d="m 179.15272,838.68308 c 1.80832,2.7932 4.04949,5.26716 6.54617,7.15269 1.44416,1.0677 0.71396,0.57748 2.18803,1.47619 0,0 -8.6882,9.47052 -8.6882,9.47052 l 0,0 c -1.5293,-0.99537 -0.77644,-0.46824 -2.25818,-1.58222 -2.54628,-2.07555 -4.8256,-4.65023 -6.82842,-7.45018 0,0 9.0406,-9.067 9.0406,-9.067 z"
       inkscape:connector-curvature="0" />
    <path
       style="fill:#ffffff"
       id="path3420"
       d="m 167.65167,922.91377 c 2.3147,2.82458 4.22268,5.99845 6.55972,8.80061 1.80541,2.27664 3.8981,4.33092 6.11948,6.14933 1.67521,1.59958 0.87205,0.75755 2.40801,2.52764 0,0 -10.1574,9.08786 -10.1574,9.08786 l 0,0 c -1.43119,-1.64135 -0.67167,-0.85949 -2.28121,-2.34268 -2.26514,-1.90461 -4.46398,-3.96228 -6.2733,-6.35942 -2.2868,-2.80558 -4.14484,-5.98025 -6.54504,-8.68628 0,0 10.16974,-9.17706 10.16974,-9.17706 z"
       inkscape:connector-curvature="0" />
    <path
       style="fill:#008000"
       id="path3426"
       d="m 230.23637,741.22244 c -0.70225,2.83011 -1.706,5.56484 -2.34215,8.4156 -0.61542,2.15272 -0.98146,4.36903 -1.64581,6.50655 -0.60396,2.34867 -1.3594,4.6508 -2.05889,6.97113 -0.45238,2.41968 -1.30338,4.71628 -2.05111,7.04898 -0.8419,2.32287 -1.25468,4.74968 -1.77579,7.15223 -0.53026,2.00007 -1.14146,3.97561 -1.72048,5.96195 -0.67266,2.14319 -1.11581,4.34206 -1.83306,6.47204 -0.86405,2.61846 -1.62065,5.27493 -2.37184,7.92837 -0.68496,2.67142 -0.99221,5.41056 -1.74131,8.06664 -0.71642,2.20246 -1.31747,4.44325 -1.85303,6.69621 -0.39155,2.33778 -0.92209,4.64918 -1.29592,6.99019 -0.21791,2.22181 -0.45813,4.42337 -0.85684,6.62088 -0.36827,2.02432 -0.43665,4.07757 -0.81139,6.10006 -0.46986,2.24462 -0.58067,4.53389 -0.98719,6.78856 -0.43257,2.10085 -0.5752,4.23955 -0.99955,6.34073 -0.51312,2.21037 -0.6708,4.47549 -0.77525,6.73524 -0.0878,2.39149 -0.43313,4.78302 -0.872,7.13483 -0.53271,2.06595 -0.8875,4.16046 -1.07484,6.28393 -0.15404,2.21151 -0.1523,4.42972 -0.15453,6.64537 -0.004,2.39197 0.001,4.78391 0.008,7.17588 0.004,2.51723 -0.009,5.03443 -0.006,7.55167 -0.009,2.55953 0.003,5.11907 0.009,7.67858 0.005,2.09486 0.006,4.18972 0.007,6.28458 4.6e-4,2.01659 3.4e-4,4.03319 3e-4,6.04978 -0.002,2.06071 0.005,4.12143 -0.006,6.18211 -7.1e-4,2.37617 -0.004,4.75231 -0.006,7.12848 -0.1127,2.28161 0.0596,4.51945 0.4194,6.76843 0.35361,2.04189 0.48539,4.10952 0.56035,6.17733 -0.0959,2.03133 0.30676,4.01216 0.61336,6.00687 0.28236,2.01452 0.30576,4.04167 0.65966,6.04591 0.39606,1.90681 0.48329,3.85017 0.95071,5.74093 0.53401,1.77065 0.59125,3.62264 0.86266,5.43744 0.45542,2.03062 0.73544,4.08538 0.86752,6.16042 0.31331,2.00093 0.72182,3.97888 0.93676,5.99498 0.0597,2.01229 0.26982,3.98573 0.61499,5.96713 0.26778,1.8104 0.91835,3.52141 1.25427,5.32062 0.2814,1.92719 0.26914,3.86705 0.59384,5.78836 -0.10125,0.14208 0.76262,2.35627 0.72242,2.39104 -7.94846,6.87488 -4.84342,7.43671 -9.00011,6.38387 -2.29154,-0.57863 -4.61613,-1.0353 -6.94573,-1.43783 -2.61485,-0.44673 -5.26482,-0.56485 -7.91154,-0.62561 -2.05786,-0.14952 -3.98497,0.72921 -5.81194,1.58877 -2.5038,1.28056 -5.10206,2.3571 -7.46116,3.89888 -1.49129,0.91792 -0.73308,0.59531 -2.24576,1.033 0,0 6.79537,-7.29128 6.79537,-7.29128 l 0,0 c 1.31025,-0.60291 0.61622,-0.24063 2.06091,-1.12647 2.45943,-1.42997 5.04979,-2.60976 7.60863,-3.84863 1.97595,-0.78679 3.92697,-1.52382 6.10178,-1.26179 2.67693,0.092 5.35365,0.2519 7.99131,0.75045 2.33433,0.42106 4.66482,0.86518 6.98944,1.33398 3.76046,-0.12385 0.58154,-0.14665 -6.43157,6.36335 -0.0501,0.0465 0.18768,0.0175 0.19897,-0.0499 0.0655,-0.39135 -0.17106,-0.77583 -0.28779,-1.15506 -0.0983,-0.31942 -0.22384,-0.62983 -0.33576,-0.94474 -0.35829,-1.92156 -0.43766,-3.8375 -0.60777,-5.78246 -0.29183,-1.81567 -0.94844,-3.5215 -1.24199,-5.33029 -0.347,-2.00348 -0.68531,-3.98051 -0.66248,-6.02385 -0.18228,-2.03403 -0.54489,-4.03368 -0.94384,-6.0354 -0.1194,-2.0384 -0.33284,-4.06911 -0.81629,-6.05807 -0.35589,-1.77699 -0.30584,-3.61826 -0.82867,-5.37008 -0.49765,-1.91428 -0.62334,-3.8608 -0.9746,-5.80569 -0.38686,-2.01525 -0.48361,-4.03199 -0.68097,-6.07281 -0.29271,-2.02948 -0.79653,-4.03415 -0.68339,-6.09926 -0.0549,-2.03346 -0.14907,-4.0696 -0.47831,-6.08049 -0.36819,-2.29889 -0.66295,-4.57043 -0.4955,-6.9086 -0.002,-2.37325 -0.005,-4.7465 -0.006,-7.11975 -0.0115,-2.0576 -0.004,-4.11524 -0.006,-6.17286 -4e-5,-2.01674 -1.6e-4,-4.03349 3e-4,-6.05023 7.2e-4,-2.09821 0.002,-4.19642 0.007,-6.29462 0.006,-2.5637 0.0176,-5.12741 0.009,-7.69111 0.003,-2.51296 -0.01,-5.02585 -0.0105,-7.5388 0.002,-2.3927 -0.002,-4.78536 -0.009,-7.17804 0.003,-2.2326 -0.0201,-4.46735 0.0953,-6.69769 0.14976,-2.16157 0.42878,-4.30969 1.0148,-6.40192 0.54974,-2.27874 0.8063,-4.66298 0.96446,-6.99585 0.0887,-2.29621 0.201,-4.6076 0.67091,-6.86282 0.45968,-2.09826 0.64743,-4.21656 1.02283,-6.33183 0.44524,-2.25226 0.59395,-4.52146 0.97052,-6.78435 0.41497,-2.01958 0.54181,-4.04845 0.82286,-6.09039 0.39354,-2.19863 0.77466,-4.37385 0.89004,-6.61056 0.34117,-2.36771 0.89805,-4.68541 1.25281,-7.04908 0.49706,-2.27809 1.09123,-4.54215 1.80877,-6.76 0.8995,-2.6234 1.16932,-5.37399 1.80343,-8.06494 0.6956,-2.67065 1.5208,-5.30802 2.27127,-7.96335 0.83215,-2.08841 1.22545,-4.28628 1.86837,-6.43392 0.63971,-1.95289 1.1028,-3.95613 1.73373,-5.91225 0.70473,-2.35862 0.8333,-4.88323 1.78467,-7.18621 0.58115,-2.37941 1.76338,-4.5861 2.04379,-7.05659 0.66132,-2.32787 1.53504,-4.59227 2.0099,-6.97205 0.71502,-2.12141 1.11335,-4.30718 1.75149,-6.45636 0.58467,-2.83121 1.49349,-5.55802 2.32743,-8.3207 0,0 8.16606,-5.75775 8.16606,-5.75775 z"
       inkscape:connector-curvature="0" />
  </g>
</svg>
